HIERARCHY
ROOT Hips
{
	OFFSET 0.00 0.00 0.00
	CHANNELS 6 Xposition Yposition Zposition Xrotation Yrotation Zrotation
	JOINT Spine
	{
		OFFSET 0.00000 2.10617 3.15926
		CHANNELS 3 Xrotation Yrotation Zrotation
		JOINT Spine1
		{
			OFFSET 0.00000 0.73147 4.14835
			CHANNELS 3 Xrotation Yrotation Zrotation
			JOINT Spine2
			{
				OFFSET 0.00000 0.36713 4.19631
				CHANNELS 3 Xrotation Yrotation Zrotation
				JOINT Spine3
				{
					OFFSET 0.00000 0.00000 4.21234
					CHANNELS 3 Xrotation Yrotation Zrotation
					JOINT Neck
					{
						OFFSET 0.00000 -1.57962 11.05740
						CHANNELS 3 Xrotation Yrotation Zrotation
						JOINT Head
						{
							OFFSET 0.00000 -1.00576 5.70398
							CHANNELS 3 Xrotation Yrotation Zrotation
							End Site
							{
								OFFSET 0.00000 0.00001 6.81873
							}
						}
					}
					JOINT RightShoulder
					{
						OFFSET -1.28113 -2.13521 6.91810
						CHANNELS 3 Xrotation Yrotation Zrotation
						JOINT RightArm
						{
							OFFSET -6.36294 0.00000 0.00000
							CHANNELS 3 Xrotation Yrotation Zrotation
							JOINT RightForeArm
							{
								OFFSET -10.12221 0.00000 0.00000
								CHANNELS 3 Xrotation Yrotation Zrotation
								JOINT RightHand
								{
									OFFSET -10.76713 0.00000 0.00000
									CHANNELS 3 Xrotation Yrotation Zrotation
									JOINT RightHandEnd
									{
										OFFSET -2.78915 0.00000 0.00000
										CHANNELS 3 Xrotation Yrotation Zrotation
										End Site
										{
											OFFSET -2.78915 0.00000 0.00000
										}
									}
									JOINT RightHandThumb1
									{
										OFFSET -1.11566 -1.85944 -0.74377
										CHANNELS 3 Yrotation Xrotation Zrotation
										End Site
										{
											OFFSET -2.69412 -0.72189 0.00000
										}
									}
								}
							}
						}
					}
					JOINT LeftShoulder
					{
						OFFSET 1.28113 -2.13521 6.91810
						CHANNELS 3 Xrotation Yrotation Zrotation
						JOINT LeftArm
						{
							OFFSET 6.36294 0.00000 0.00000
							CHANNELS 3 Xrotation Yrotation Zrotation
							JOINT LeftForeArm
							{
								OFFSET 10.12221 0.00000 0.00000
								CHANNELS 3 Xrotation Yrotation Zrotation
								JOINT LeftHand
								{
									OFFSET 10.76713 0.00000 0.00000
									CHANNELS 3 Xrotation Yrotation Zrotation
									JOINT LeftHandEnd
									{
										OFFSET 2.78915 0.00000 0.00000
										CHANNELS 3 Xrotation Yrotation Zrotation
										End Site
										{
											OFFSET 2.78915 0.00000 0.00000
										}
									}
									JOINT LeftHandThumb1
									{
										OFFSET 1.11566 -1.85944 -0.74377
										CHANNELS 3 Yrotation Xrotation Zrotation
										End Site
										{
											OFFSET 2.69412 -0.72189 0.00000
										}
									}
								}
							}
						}
					}
				}
			}
		}
	}
	JOINT RightUpLeg
	{
		OFFSET -3.80068 0.00000 -1.11031
		CHANNELS 3 Xrotation Yrotation Zrotation
		JOINT RightLeg
		{
			OFFSET 0.00001 0.00000 -17.00167
			CHANNELS 3 Xrotation Yrotation Zrotation
			JOINT RightFoot
			{
				OFFSET 0.00001 0.00000 -17.96841
				CHANNELS 3 Xrotation Yrotation Zrotation
				JOINT RightToeBase
				{
					OFFSET 0.00000 -5.07501 -1.84715
					CHANNELS 3 Xrotation Yrotation Zrotation
					End Site
					{
						OFFSET 0.00000 -3.07471 -0.00000
					}
				}
			}
		}
	}
	JOINT LeftUpLeg
	{
		OFFSET 3.80068 0.00000 -1.11031
		CHANNELS 3 Xrotation Yrotation Zrotation
		JOINT LeftLeg
		{
			OFFSET 0.00001 0.00000 -17.00167
			CHANNELS 3 Xrotation Yrotation Zrotation
			JOINT LeftFoot
			{
				OFFSET 0.00001 0.00000 -17.96841
				CHANNELS 3 Xrotation Yrotation Zrotation
				JOINT LeftToeBase
				{
					OFFSET 0.00000 -5.07501 -1.84715
					CHANNELS 3 Xrotation Yrotation Zrotation
					End Site
					{
						OFFSET 0.00000 -3.07471 -0.00000
					}
				}
			}
		}
	}
}
MOTION
Frames: 16
Frame Time: 0.008342
 16.8189 -0.0367 25.6521 -1.3313 -71.9647 -85.6668 14.4067 -1.6975 0.5989 8.9002 -0.8529 0.0034 7.4904 -0.6532 -1.1185 1.9654 -0.4145 -0.3672 14.3767 -3.1238 2.3163 -1.5993 -0.0258 3.1799 -26.6031 17.9692 23.5387 -6.4645 -12.4989 43.9574 0.0000 0.0000 8.1347 -18.3638 38.7922 21.5383 0.0000 0.0000 -0.0000 -0.0000 0.0000 0.0000 -29.0230 -15.0057 -38.6525 -0.2839 9.3051 -35.9502 -0.0000 -0.0000 -11.0390 -27.8919 -52.0032 -22.2721 0.0000 -0.0000 0.0000 -0.0000 0.0000 0.0000 -22.3699 -4.0492 -5.3881 12.3640 0.0000 0.0000 -10.3529 -4.7205 -10.2155 -56.5844 0.0000 -0.0000 -21.1436 -0.1501 -5.8009 9.3740 0.0000 0.0000 -12.5060 36.3850 16.5106 -48.3286 0.0000 -0.0000
 16.8187 -0.0396 25.6484 -1.3252 -71.9700 -85.6678 14.4010 -1.7011 0.5981 8.8943 -0.8546 0.0040 7.4899 -0.6507 -1.1173 1.9685 -0.4132 -0.3684 14.4048 -3.1257 2.3054 -1.6096 -0.0286 3.1714 -26.6091 17.9800 23.5319 -6.4524 -12.5142 43.9701 0.0000 0.0000 8.1349 -18.3839 38.8112 21.5561 -0.0000 0.0000 0.0000 -0.0000 -0.0000 -0.0000 -28.9991 -15.0266 -38.6214 -0.2926 9.3032 -35.9606 -0.0000 -0.0000 -11.0740 -27.8871 -52.0511 -22.2496 -0.0000 0.0000 -0.0000 0.0000 0.0000 0.0000 -22.3604 -4.0465 -5.3735 12.3481 0.0000 0.0000 -10.3753 -4.7379 -10.2063 -56.5871 0.0000 -0.0000 -21.1371 -0.1488 -5.7960 9.3658 0.0000 0.0000 -12.5419 36.3737 16.5213 -48.2988 0.0000 -0.0000
 16.8186 -0.0423 25.6443 -1.3205 -71.9754 -85.6686 14.3943 -1.7037 0.5997 8.8894 -0.8557 0.0044 7.4890 -0.6493 -1.1161 1.9715 -0.4124 -0.3694 14.4317 -3.1320 2.2927 -1.6205 -0.0323 3.1559 -26.6117 17.9921 23.5204 -6.4479 -12.5348 43.9789 0.0000 0.0000 8.1395 -18.3986 38.8325 21.5737 0.0000 -0.0000 0.0000 -0.0000 -0.0000 0.0000 -28.9767 -15.0448 -38.5935 -0.2939 9.2939 -35.9727 -0.0000 -0.0000 -11.1102 -27.8846 -52.1022 -22.2214 -0.0000 -0.0000 0.0000 -0.0000 0.0000 0.0000 -22.3512 -4.0429 -5.3634 12.3334 0.0000 0.0000 -10.4018 -4.7515 -10.1944 -56.5859 0.0000 -0.0000 -21.1313 -0.1466 -5.7975 9.3588 0.0000 0.0000 -12.5848 36.3625 16.5381 -48.2650 0.0000 -0.0000
 16.8188 -0.0449 25.6399 -1.3165 -71.9810 -85.6676 14.3869 -1.7059 0.6025 8.8849 -0.8563 0.0043 7.4879 -0.6492 -1.1142 1.9741 -0.4117 -0.3694 14.4575 -3.1416 2.2785 -1.6322 -0.0377 3.1339 -26.6113 18.0065 23.5050 -6.4469 -12.5586 43.9844 0.0000 0.0000 8.1471 -18.4098 38.8589 21.5898 -0.0000 0.0000 -0.0000 0.0000 0.0000 -0.0000 -28.9523 -15.0586 -38.5680 -0.2949 9.2780 -35.9840 -0.0000 -0.0000 -11.1523 -27.8731 -52.1529 -22.1795 -0.0000 0.0000 -0.0000 -0.0000 0.0000 0.0000 -22.3421 -4.0386 -5.3590 12.3193 0.0000 0.0000 -10.4335 -4.7616 -10.1807 -56.5800 0.0000 -0.0000 -21.1265 -0.1427 -5.8090 9.3540 0.0000 0.0000 -12.6371 36.3498 16.5640 -48.2256 0.0000 -0.0000
 16.8193 -0.0471 25.6352 -1.3134 -71.9867 -85.6647 14.3786 -1.7072 0.6065 8.8794 -0.8562 0.0050 7.4870 -0.6502 -1.1116 1.9770 -0.4122 -0.3694 14.4816 -3.1557 2.2630 -1.6433 -0.0431 3.1054 -26.6066 18.0236 23.4856 -6.4485 -12.5828 43.9851 0.0000 0.0000 8.1580 -18.4228 38.8887 21.6073 0.0000 0.0000 -0.0000 0.0000 -0.0000 -0.0000 -28.9308 -15.0692 -38.5499 -0.2858 9.2551 -35.9966 -0.0000 -0.0000 -11.1900 -27.8757 -52.2057 -22.1518 0.0000 0.0000 0.0000 -0.0000 -0.0000 0.0000 -22.3327 -4.0335 -5.3631 12.3054 0.0000 0.0000 -10.4712 -4.7672 -10.1641 -56.5696 0.0000 -0.0000 -21.1236 -0.1371 -5.8335 9.3527 0.0000 0.0000 -12.7016 36.3359 16.6020 -48.1809 0.0000 -0.0000
 16.8201 -0.0492 25.6299 -1.3099 -71.9929 -85.6586 14.3684 -1.7079 0.6107 8.8742 -0.8557 0.0050 7.4862 -0.6526 -1.1084 1.9794 -0.4130 -0.3682 14.5043 -3.1713 2.2464 -1.6530 -0.0506 3.0739 -26.5985 18.0427 23.4627 -6.4517 -12.6081 43.9838 0.0000 0.0000 8.1714 -18.4313 38.9209 21.6198 0.0000 0.0000 -0.0000 0.0000 -0.0000 -0.0000 -28.9043 -15.0732 -38.5331 -0.2779 9.2231 -36.0077 -0.0000 -0.0000 -11.2346 -27.8726 -52.2555 -22.1133 -0.0000 0.0000 -0.0000 -0.0000 -0.0000 -0.0000 -22.3230 -4.0280 -5.3778 12.2913 0.0000 0.0000 -10.5153 -4.7695 -10.1436 -56.5543 0.0000 -0.0000 -21.1217 -0.1303 -5.8666 9.3533 0.0000 0.0000 -12.7753 36.3209 16.6471 -48.1306 0.0000 -0.0000
 16.8213 -0.0510 25.6241 -1.3054 -71.9993 -85.6484 14.3563 -1.7080 0.6145 8.8687 -0.8543 0.0045 7.4851 -0.6562 -1.1049 1.9818 -0.4150 -0.3659 14.5258 -3.1882 2.2292 -1.6611 -0.0595 3.0417 -26.5868 18.0633 23.4372 -6.4544 -12.6320 43.9816 0.0000 0.0000 8.1848 -18.4381 38.9526 21.6308 -0.0000 0.0000 0.0000 -0.0000 -0.0000 0.0000 -28.8739 -15.0710 -38.5190 -0.2661 9.1801 -36.0191 -0.0000 -0.0000 -11.2797 -27.8760 -52.3037 -22.0799 0.0000 -0.0000 -0.0000 -0.0000 -0.0000 0.0000 -22.3127 -4.0224 -5.4034 12.2767 0.0000 0.0000 -10.5665 -4.7684 -10.1197 -56.5340 0.0000 -0.0000 -21.1209 -0.1226 -5.9079 9.3560 0.0000 0.0000 -12.8585 36.3048 16.6986 -48.0732 0.0000 -0.0000
 16.8228 -0.0525 25.6177 -1.2993 -72.0059 -85.6337 14.3421 -1.7076 0.6169 8.8627 -0.8521 0.0035 7.4841 -0.6603 -1.1018 1.9840 -0.4181 -0.3623 14.5464 -3.2064 2.2116 -1.6681 -0.0692 3.0123 -26.5721 18.0826 23.4083 -6.4584 -12.6561 43.9809 0.0000 0.0000 8.1975 -18.4348 38.9798 21.6367 -0.0000 -0.0000 0.0000 0.0000 -0.0000 0.0000 -28.8372 -15.0651 -38.5064 -0.2546 9.1279 -36.0292 -0.0000 -0.0000 -11.3271 -27.8847 -52.3513 -22.0510 0.0000 -0.0000 -0.0000 -0.0000 0.0000 0.0000 -22.3016 -4.0171 -5.4399 12.2620 0.0000 0.0000 -10.6253 -4.7640 -10.0931 -56.5075 0.0000 -0.0000 -21.1210 -0.1142 -5.9563 9.3613 0.0000 0.0000 -12.9513 36.2867 16.7555 -48.0092 0.0000 -0.0000
 16.8246 -0.0536 25.6106 -1.2863 -72.0122 -85.6060 14.3250 -1.7090 0.6137 8.8577 -0.8492 0.0017 7.4834 -0.6644 -1.0994 1.9848 -0.4231 -0.3549 14.5672 -3.2228 2.1937 -1.6746 -0.0812 2.9859 -26.5564 18.1034 23.3772 -6.4559 -12.6771 43.9856 0.0000 0.0000 8.2018 -18.4336 39.0017 21.6467 0.0000 -0.0000 -0.0000 0.0000 0.0000 0.0000 -28.7919 -15.0533 -38.4958 -0.2385 9.0586 -36.0417 -0.0000 -0.0000 -11.3690 -27.9121 -52.3974 -22.0368 -0.0000 -0.0000 -0.0000 -0.0000 -0.0000 0.0000 -22.2887 -4.0125 -5.4913 12.2458 0.0000 0.0000 -10.6914 -4.7578 -10.0631 -56.4763 0.0000 -0.0000 -21.1225 -0.1057 -6.0128 9.3698 0.0000 0.0000 -13.0527 36.2671 16.8157 -47.9386 0.0000 -0.0000
 16.8269 -0.0546 25.6029 -1.2817 -72.0186 -85.5931 14.3108 -1.7050 0.6181 8.8470 -0.8471 0.0021 7.4816 -0.6676 -1.1013 1.9876 -0.4252 -0.3533 14.5859 -3.2432 2.1782 -1.6773 -0.0911 2.9710 -26.5410 18.1126 23.3518 -6.4484 -12.6892 43.9885 0.0000 0.0000 8.2078 -18.4323 39.0178 21.6531 0.0000 -0.0000 -0.0000 0.0000 -0.0000 0.0000 -28.7542 -15.0519 -38.4860 -0.2287 9.0122 -36.0495 -0.0000 -0.0000 -11.4125 -27.9376 -52.4445 -22.0422 0.0000 -0.0000 0.0000 0.0000 0.0000 0.0000 -22.2781 -4.0093 -5.5331 12.2346 0.0000 0.0000 -10.7663 -4.7502 -10.0402 -56.4403 0.0000 -0.0000 -21.1215 -0.0974 -6.0575 9.3769 0.0000 0.0000 -13.1587 36.2458 16.8722 -47.8612 0.0000 -0.0000
 16.8296 -0.0553 25.5945 -1.2719 -72.0251 -85.5709 14.2933 -1.7019 0.6171 8.8378 -0.8447 0.0013 7.4797 -0.6702 -1.1045 1.9884 -0.4289 -0.3488 14.6054 -3.2613 2.1643 -1.6800 -0.1009 2.9635 -26.5265 18.1196 23.3267 -6.4325 -12.6964 43.9991 0.0000 0.0000 8.2039 -18.4335 39.0247 21.6643 -0.0000 0.0000 -0.0000 0.0000 -0.0000 -0.0000 -28.7087 -15.0473 -38.4738 -0.2152 8.9535 -36.0633 -0.0000 -0.0000 -11.4471 -27.9844 -52.4881 -22.0663 0.0000 0.0000 0.0000 0.0000 -0.0000 0.0000 -22.2669 -4.0071 -5.5813 12.2235 0.0000 0.0000 -10.8485 -4.7420 -10.0187 -56.4001 0.0000 -0.0000 -21.1206 -0.0896 -6.1008 9.3846 0.0000 0.0000 -13.2684 36.2236 16.9241 -47.7787 0.0000 -0.0000
 16.8327 -0.0558 25.5855 -1.2612 -72.0311 -85.5477 14.2758 -1.6981 0.6149 8.8272 -0.8423 0.0005 7.4768 -0.6715 -1.1104 1.9893 -0.4324 -0.3443 14.6249 -3.2770 2.1516 -1.6817 -0.1113 2.9662 -26.5125 18.1207 23.3043 -6.4115 -12.6988 44.0133 0.0000 0.0000 8.1959 -18.4330 39.0244 21.6725 0.0000 -0.0000 0.0000 -0.0000 -0.0000 -0.0000 -28.6645 -15.0455 -38.4608 -0.2016 8.9012 -36.0797 -0.0000 -0.0000 -11.4744 -28.0391 -52.5299 -22.1055 -0.0000 0.0000 -0.0000 -0.0000 -0.0000 0.0000 -22.2565 -4.0065 -5.6250 12.2158 0.0000 0.0000 -10.9387 -4.7337 -10.0041 -56.3566 0.0000 -0.0000 -21.1183 -0.0827 -6.1359 9.3921 0.0000 0.0000 -13.3811 36.2000 16.9690 -47.6919 0.0000 -0.0000
 16.8361 -0.0561 25.5756 -1.2450 -72.0353 -85.5132 14.2571 -1.6958 0.6047 8.8190 -0.8407 0.0013 7.4716 -0.6702 -1.1217 1.9896 -0.4379 -0.3359 14.6445 -3.2888 2.1404 -1.6823 -0.1214 2.9778 -26.4968 18.1180 23.2828 -6.3840 -12.6930 44.0341 0.0000 0.0000 8.1817 -18.4384 39.0169 21.6812 -0.0000 0.0000 0.0000 -0.0000 -0.0000 0.0000 -28.6171 -15.0426 -38.4418 -0.1848 8.8451 -36.1086 -0.0000 -0.0000 -11.4868 -28.1072 -52.5640 -22.1577 0.0000 0.0000 0.0000 0.0000 0.0000 0.0000 -22.2435 -4.0065 -5.6703 12.2084 0.0000 0.0000 -11.0362 -4.7256 -9.9944 -56.3103 0.0000 -0.0000 -21.1133 -0.0758 -6.1702 9.3986 0.0000 0.0000 -13.4969 36.1750 17.0088 -47.6030 0.0000 -0.0000
 16.8402 -0.0565 25.5654 -1.2367 -72.0404 -85.4973 14.2422 -1.6894 0.6051 8.8035 -0.8381 -0.0002 7.4666 -0.6701 -1.1288 1.9897 -0.4396 -0.3356 14.6639 -3.2997 2.1342 -1.6830 -0.1291 2.9959 -26.4862 18.1070 23.2701 -6.3561 -12.6909 44.0483 0.0000 0.0000 8.1710 -18.4346 39.0023 21.6864 0.0000 0.0000 -0.0000 0.0000 -0.0000 -0.0000 -28.5906 -15.0481 -38.4333 -0.1694 8.8276 -36.1254 -0.0000 -0.0000 -11.4987 -28.1658 -52.6025 -22.2252 0.0000 0.0000 0.0000 0.0000 0.0000 0.0000 -22.2379 -4.0098 -5.6852 12.2128 0.0000 0.0000 -11.1424 -4.7186 -10.0032 -56.2625 0.0000 -0.0000 -21.1070 -0.0714 -6.1774 9.4043 0.0000 0.0000 -13.6118 36.1501 17.0328 -47.5134 0.0000 -0.0000
 16.8446 -0.0569 25.5546 -1.2266 -72.0448 -85.4757 14.2246 -1.6831 0.6002 8.7911 -0.8366 -0.0013 7.4593 -0.6690 -1.1403 1.9892 -0.4420 -0.3323 14.6828 -3.3066 2.1302 -1.6825 -0.1347 3.0200 -26.4709 18.0919 23.2588 -6.3240 -12.6775 44.0666 0.0000 0.0000 8.1571 -18.4418 38.9839 21.6900 -0.0000 0.0000 0.0000 -0.0000 -0.0000 0.0000 -28.5633 -15.0526 -38.4170 -0.1497 8.8089 -36.1602 -0.0000 -0.0000 -11.4908 -28.2301 -52.6288 -22.2948 -0.0000 -0.0000 0.0000 -0.0000 -0.0000 0.0000 -22.2320 -4.0126 -5.6946 12.2193 0.0000 0.0000 -11.2555 -4.7123 -10.0186 -56.2145 0.0000 -0.0000 -21.0979 -0.0664 -6.1817 9.4066 0.0000 0.0000 -13.7285 36.1236 17.0515 -47.4247 0.0000 -0.0000
 16.8493 -0.0575 25.5431 -1.2251 -72.0461 -85.4610 14.2085 -1.6742 0.5919 8.7808 -0.8364 0.0007 7.4491 -0.6663 -1.1559 1.9883 -0.4450 -0.3278 14.7001 -3.3095 2.1297 -1.6811 -0.1382 3.0459 -26.4537 18.0734 23.2508 -6.2909 -12.6596 44.0830 0.0000 0.0000 8.1447 -18.4533 38.9621 21.6910 -0.0000 -0.0000 -0.0000 -0.0000 -0.0000 0.0000 -28.5468 -15.0577 -38.4004 -0.1261 8.8067 -36.2038 -0.0000 -0.0000 -11.4684 -28.2854 -52.6456 -22.3626 -0.0000 0.0000 -0.0000 -0.0000 0.0000 0.0000 -22.2260 -4.0133 -5.6872 12.2338 0.0000 0.0000 -11.3785 -4.7074 -10.0474 -56.1663 0.0000 -0.0000 -21.0822 -0.0589 -6.1780 9.4042 0.0000 0.0000 -13.8447 36.0950 17.0627 -47.3390 0.0000 -0.0000
